# xmcd
#
# Track frame offsets:
#	150
#	14116
#	31853
#	48015
#	63223
#	79649
#	96307
#	109571
#	125210
#	144309
#	161688
#	177591
#
# Disc length: 2578 seconds
#
# Revision: 1
# Processed by: cddbd v1.5.2PL0 Copyright (c) Steve Scherf et al.
# Submitted via: audiograbber 1.83.01
#
DISCID=9c0a100c
DTITLE=Jennifer Nettles - Playing With Fire
DYEAR=2016
DGENRE=Country
TTITLE0=Playing With Fire
TTITLE1=Unlove You
TTITLE2=Hey Heartbreak
TTITLE3=Drunk In Heels
TTITLE4=Stupid Girl
TTITLE5=Three Days In Bed
TTITLE6=Sugar
TTITLE7=Chaser
TTITLE8=Starting Over
TTITLE9=Salvation Works
TTITLE10=Way Back Home
TTITLE11=My House (feat. Jennifer Lopez)
EXTD=
EXTT0=
EXTT1=
EXTT2=
EXTT3=
EXTT4=
EXTT5=
EXTT6=
EXTT7=
EXTT8=
EXTT9=
EXTT10=
EXTT11=
PLAYORDER=
